<svg fill="#fff" id="_x31__x2C_5" enable-background="new 0 0 24 24" height="512" viewBox="0 0 24 24" width="512" xmlns="http://www.w3.org/2000/svg"><path d="m13.25 20h-8.5c-.965 0-1.75-.785-1.75-1.75v-4.5c0-.965.785-1.75 1.75-1.75h8.5c.965 0 1.75.785 1.75 1.75v4.5c0 .965-.785 1.75-1.75 1.75zm-8.5-6.5c-.138 0-.25.112-.25.25v4.5c0 .138.112.25.25.25h8.5c.138 0 .25-.112.25-.25v-4.5c0-.138-.112-.25-.25-.25z"/><path d="m11.25 13.5c-.414 0-.75-.336-.75-.75v-1.5c0-.138-.112-.25-.25-.25h-2.5c-.138 0-.25.112-.25.25v1.5c0 .414-.336.75-.75.75s-.75-.336-.75-.75v-1.5c0-.965.785-1.75 1.75-1.75h2.5c.965 0 1.75.785 1.75 1.75v1.5c0 .414-.336.75-.75.75z"/><path d="m9 17c-.11 0-.22-.024-.322-.073l-5.25-2.5c-.374-.178-.533-.625-.355-.999.178-.375.626-.534 1-.354l4.927 2.345 4.928-2.346c.375-.18.821-.021 1 .354.178.374.019.821-.355.999l-5.25 2.5c-.103.05-.213.074-.323.074z"/><path d="m15.25 24h-12.5c-1.517 0-2.75-1.233-2.75-2.75v-15.5c0-1.517 1.233-2.75 2.75-2.75h2c.414 0 .75.336.75.75s-.336.75-.75.75h-2c-.689 0-1.25.561-1.25 1.25v15.5c0 .689.561 1.25 1.25 1.25h12.5c.689 0 1.25-.561 1.25-1.25v-15.5c0-.689-.561-1.25-1.25-1.25h-2c-.414 0-.75-.336-.75-.75s.336-.75.75-.75h2c1.517 0 2.75 1.233 2.75 2.75v15.5c0 1.517-1.233 2.75-2.75 2.75z"/><path d="m12.25 6h-6.5c-.965 0-1.75-.785-1.75-1.75v-1.5c0-.414.336-.75.75-.75h1.604c.327-1.153 1.39-2 2.646-2s2.319.847 2.646 2h1.604c.414 0 .75.336.75.75v1.5c0 .965-.785 1.75-1.75 1.75zm-6.75-2.5v.75c0 .138.112.25.25.25h6.5c.138 0 .25-.112.25-.25v-.75h-1.5c-.414 0-.75-.336-.75-.75 0-.689-.561-1.25-1.25-1.25s-1.25.561-1.25 1.25c0 .414-.336.75-.75.75z"/><path d="m22 21c-.294 0-.561-.172-.683-.439l-1.071-2.355c-.163-.36-.246-.744-.246-1.14v-9.066c0-1.103.897-2 2-2s2 .897 2 2v9.066c0 .396-.083.779-.247 1.139l-1.071 2.355c-.121.268-.388.44-.682.44zm0-13.5c-.276 0-.5.225-.5.5v9.066c0 .181.038.354.112.518l.388.854.388-.854c.074-.163.112-.337.112-.518v-9.066c0-.275-.224-.5-.5-.5z"/></svg>