<svg fill="#fff" id="Layer_1" height="512" viewBox="0 0 512 512" width="512" xmlns="http://www.w3.org/2000/svg" data-name="Layer 1"><path d="m96.944 363.537a85.4 85.4 0 0 0 64.881 0v-21.537a87.19 87.19 0 0 1 -64.881 1.959z"/><path d="m40.3 221.245a9.348 9.348 0 0 0 -5.344 6.49 14.848 14.848 0 0 0 11.825 18.142 6 6 0 0 1 4.965 5.911v10.281a75.209 75.209 0 0 0 150.417 0v-10.281a6 6 0 0 1 4.965-5.911 14.844 14.844 0 0 0 11.824-18.142 9.506 9.506 0 0 0 -7.343-7.164 5.979 5.979 0 0 1 -1.776.629c-2.966.521-72.318 12.161-121.323-29.527-9.212.642-16.793.722-21.69.676l-1.857 30.485c0 .038 0 .075-.008.113a7.672 7.672 0 0 1 -11.16 6.217l-9.795-5.031a12.668 12.668 0 0 1 -3.7-2.888z"/><path d="m216.275 395.991-32.546-13.891-.05-.021-17.369-7.413a97.348 97.348 0 0 1 -73.851 0l-49.959 21.324a37.86 37.86 0 0 0 -20.5 30.21v49.162h214.769v-49.162a37.856 37.856 0 0 0 -20.494-30.209z"/><path d="m261.453 36.634h169.132v22.385h-169.132z"/><path d="m49.083 182.717v30.221a.762.762 0 0 0 .4.519l3.915 2.01 1.8-29.633a6.008 6.008 0 0 1 6.3-5.627c.736.039 74.315 3.371 115.5-28.218a6 6 0 1 1 7.3 9.521c-22.64 17.363-53.166 25.051-78.208 28.389 36.447 24.166 81.834 21.741 96.7 20.134v-27.316a76.514 76.514 0 0 0 -19.059-50.576 6.014 6.014 0 0 1 -3.387-3.65 76.817 76.817 0 0 0 -131.261 54.226z"/><path d="m476 55.051h-33.415v9.968a6 6 0 0 1 -6 6h-181.132a6 6 0 0 1 -6-6v-9.968h-43.415a14.013 14.013 0 0 0 -14 14v54.349a88.506 88.506 0 0 1 22.762 59.317v26.267a21.5 21.5 0 0 1 15.817 15.9 26.861 26.861 0 0 1 -16.445 31.45v5.738a86.853 86.853 0 0 1 -22.126 57.98v52.548l29.117 12.427c.111.048.22.1.327.152a49.945 49.945 0 0 1 25.167 29.7h229.343a14.013 14.013 0 0 0 14-14v-331.83a14.013 14.013 0 0 0 -14-13.998zm-101.661 65.549h3.533a6 6 0 0 1 0 12h-3.533a6 6 0 0 1 0-12zm0 49.994h42.528a6 6 0 0 1 0 12h-42.528a6 6 0 0 1 0-12zm-12.182 51.091h14.715a6 6 0 0 1 0 12h-14.715a6 6 0 0 1 0-12zm-140.282-49.765a66 66 0 1 1 66 66 66.075 66.075 0 0 1 -66-66zm63.355 120.662a6 6 0 0 1 -6 6h-34.018a6 6 0 0 1 0-12h34.018a6 6 0 0 1 6 6zm25.207 65.981h-65.225a6 6 0 0 1 0-12h65.225a6 6 0 0 1 0 12zm0-59.981h-5.361a6 6 0 0 1 0-12h5.361a6 6 0 0 1 0 12zm15.041-6a6 6 0 0 1 6-6h79.459a6 6 0 0 1 0 12h-79.459a6 6 0 0 1 -6-6zm44.036 65.981h-32.614a6 6 0 0 1 0-12h32.615a6 6 0 0 1 0 12zm21.2 0h-4.314a6 6 0 0 1 0-12h4.311a6 6 0 1 1 0 12zm55.87 0h-34.335a6 6 0 0 1 0-12h34.335a6 6 0 0 1 0 12zm0-59.981h-14.895a6 6 0 1 1 0-12h14.895a6 6 0 0 1 0 12zm0-64.9h-43.866a6 6 0 0 1 0-12h43.866a6 6 0 0 1 0 12zm0-51.091h-3.872a6 6 0 0 1 0-12h3.872a6 6 0 0 1 0 12zm0-49.994h-42.867a6 6 0 0 1 0-12h42.867a6 6 0 0 1 0 12z"/><path d="m287.875 225.92a54 54 0 1 0 -54-54 54.061 54.061 0 0 0 54 54zm-34.711-53.431a6 6 0 0 1 8.485 0l12.862 12.861 39.589-39.588a6 6 0 0 1 8.485 8.485l-43.832 43.832a6 6 0 0 1 -8.485 0l-17.1-17.105a6 6 0 0 1 -.004-8.485z"/></svg>