<svg fill="#6C6C6C" id="Capa_1" enable-background="new 0 0 512 512" height="512" viewBox="0 0 512 512" width="512" xmlns="http://www.w3.org/2000/svg"><g><path d="m256.328 243.039c18.355 0 33.288-14.933 33.288-33.289 0-18.355-14.933-33.288-33.288-33.288s-33.288 14.933-33.288 33.288c0 18.356 14.933 33.289 33.288 33.289zm0-46.577c7.327 0 13.288 5.961 13.288 13.288s-5.961 13.289-13.288 13.289-13.288-5.961-13.288-13.289 5.96-13.288 13.288-13.288z"/><path d="m502 492h-31.427v-154.8h31.082c3.954 0 7.537-2.33 9.141-5.944s.928-7.833-1.726-10.766l-52.828-58.384c-1.896-2.095-4.59-3.291-7.415-3.291h-49.966v-53.984h11.472c5.522 0 10-4.477 10-10v-38.981c0-5.523-4.478-10-10-10h-48.503l-95.666-66.301v-14.745h51.248c5.522 0 10-4.477 10-10v-44.804c0-5.523-4.478-10-10-10h-61.249c-5.523 0-10 4.477-10 10v69.549l-95.665 66.302h-50.831c-5.523 0-10 4.477-10 10v38.981c0 5.523 4.477 10 10 10h13.8v53.984h-49.639c-2.826 0-5.519 1.195-7.415 3.291l-52.828 58.383c-2.653 2.932-3.329 7.151-1.726 10.766 1.604 3.614 5.187 5.944 9.141 5.944h31.082v154.8h-32.082c-5.523 0-10 4.477-10 10s4.477 10 10 10h492c5.522 0 10-4.477 10-10s-4.478-10-10-10zm-22.879-174.8h-117.7v-38.384h82.969zm-117.7 65.217h34.576v34.576h-34.576zm-54.009-337.613h-41.248v-24.804h41.248zm-197.745 121.046h43.958c2.036 0 4.023-.621 5.696-1.781l96.842-67.117 96.843 67.117c1.673 1.16 3.66 1.781 5.696 1.781h41.63v18.981h-57.029l-81.386-57.262c-3.451-2.429-8.057-2.429-11.509 0l-81.386 57.262h-59.357v-18.981zm-41.401 112.966h82.969v38.384h-117.7zm82.968 138.177h-34.576v-34.576h34.576zm-89.152-79.793h89.152v25.217h-44.576c-5.523 0-10 4.477-10 10v54.576c0 5.523 4.477 10 10 10h44.576v55.007h-89.152zm109.152-58.384h41.274c5.523 0 10-4.477 10-10s-4.477-10-10-10h-79.042v-53.984h38.722c2.06 0 4.07-.636 5.754-1.821l78.22-55.035 78.221 55.035c1.685 1.185 3.694 1.821 5.754 1.821h38.723v53.984h-78.276c-5.522 0-10 4.477-10 10s4.478 10 10 10h40.836v213.184h-31.843v-104.407c0-28.01-22.788-50.797-50.798-50.797s-50.797 22.788-50.797 50.797v104.407h-36.749v-213.184zm56.749 213.184v-104.407c0-16.982 13.815-30.797 30.797-30.797s30.798 13.815 30.798 30.797v104.407zm133.438 0v-55.007h44.576c5.522 0 10-4.477 10-10v-54.576c0-5.523-4.478-10-10-10h-44.576v-25.217h89.152v154.8z"/><path d="m265.56 264.99c-3.434-8.242-15.615-7.99-18.646.455-1.438 4.005-.101 8.645 3.267 11.253 3.257 2.523 7.805 2.795 11.331.665 4.163-2.515 5.919-7.881 4.048-12.373z"/></g></svg>