<svg xmlns="http://www.w3.org/2000/svg" width="60.212" height="76.078" fill="#008246" viewBox="0 0 60.212 76.078">
  <g id="student" transform="translate(-53.387 0)">
    <path id="Path_53" data-name="Path 53" d="M105.455,49.7l-4.465-1.311-9.714-6.345V40.593a12.929,12.929,0,0,0,5.1-9.081,2.969,2.969,0,0,0,2.491-2.926v-4c0-.015,0-.031,0-.046V19.478a2.2,2.2,0,0,0,.919-1.793V13.05l6.7-1.142a2.377,2.377,0,0,0,.321-4.608L84.211.112a2.365,2.365,0,0,0-1.441,0L60.17,7.3a2.385,2.385,0,0,0-.74,4.149V17.51h-.055a2.311,2.311,0,0,0-2.308,2.308v3.008l-1.49,8.745a2.481,2.481,0,0,0,2.445,2.9h5.044a2.481,2.481,0,0,0,2.445-2.9l-1.49-8.745V19.818a2.311,2.311,0,0,0-2.308-2.308h-.055v-5.4l5.542.944v4.634a2.2,2.2,0,0,0,.914,1.789l0,5.114v4a2.968,2.968,0,0,0,2.491,2.926,12.93,12.93,0,0,0,5.1,9.078V42.05l-9.712,6.344L61.532,49.7a11.332,11.332,0,0,0-8.145,10.879V63.9a1.114,1.114,0,1,0,2.229,0V60.583a9.159,9.159,0,0,1,6.544-8.74l4.157-1.22L82.924,60.49a1.127,1.127,0,0,0,1.138,0l16.608-9.869,4.157,1.22a9.159,9.159,0,0,1,6.543,8.74V71.345a2.507,2.507,0,0,1-2.5,2.5h-4.912v-4.8a1.114,1.114,0,0,0-2.229,0v4.8H65.255v-4.8a1.114,1.114,0,0,0-2.229,0v4.8H58.12a2.507,2.507,0,0,1-2.5-2.5V69.113a1.114,1.114,0,1,0-2.229,0v2.232a4.738,4.738,0,0,0,4.732,4.732h50.747a4.738,4.738,0,0,0,4.732-4.732V60.582A11.332,11.332,0,0,0,105.455,49.7ZM63.066,32.239H58.022a.251.251,0,0,1-.248-.294l1.348-7.91h2.845l1.348,7.91A.251.251,0,0,1,63.066,32.239ZM61.793,19.818v1.988H59.3V19.818a.079.079,0,0,1,.079-.079h2.339a.079.079,0,0,1,.079.079ZM79.508,55.449l.444.682L68.574,49.37,75.8,44.653A23.409,23.409,0,0,0,79.508,55.449ZM79.5,50.639a28.656,28.656,0,0,0,7.987,0,21.286,21.286,0,0,1-1.876,3.6l-2.118,3.255-2.118-3.255a21.284,21.284,0,0,1-1.876-3.6Zm7.979,4.811a23.407,23.407,0,0,0,3.712-10.8l7.222,4.717L87.035,56.131ZM94,19.893h2.641v3.581H95.328A1.332,1.332,0,0,1,94,22.143v-2.25ZM60.846,9.425l22.6-7.189a.146.146,0,0,1,.09,0l22.6,7.189a.124.124,0,0,1,.1.151c-.008.116-.074.127-.123.135l-7.472,1.273-2.805-.347a1.114,1.114,0,1,0-.273,2.212l1.993.247v4.569H69.429V13.1l11.532-1.427a20.643,20.643,0,0,1,5.061,0l4.365.54A1.114,1.114,0,1,0,90.66,10L86.3,9.456a22.861,22.861,0,0,0-5.608,0L68.34,10.984,60.866,9.711c-.048-.008-.115-.019-.123-.135a.124.124,0,0,1,.1-.151Zm9.5,14.049V19.893h2.646v2.251a1.332,1.332,0,0,1-1.33,1.33H70.345ZM72.8,30.939a1.727,1.727,0,0,0-1.717-1.618.736.736,0,0,1-.735-.735V25.7h1.313a3.563,3.563,0,0,0,3.559-3.559V19.893H91.769v2.251A3.563,3.563,0,0,0,95.328,25.7h1.313v2.883a.736.736,0,0,1-.735.735,1.727,1.727,0,0,0-1.717,1.618,10.717,10.717,0,0,1-21.391,0ZM83.493,43.2a12.863,12.863,0,0,0,5.554-1.259v.706a21.239,21.239,0,0,1-.752,5.6,26.314,26.314,0,0,1-9.6,0,21.237,21.237,0,0,1-.752-5.6c0-.024,0-.047,0-.07,0,0,0-.009,0-.014v-.625A12.864,12.864,0,0,0,83.493,43.2Z" transform="translate(0 0)"/>
  </g>
</svg>
