<svg fill="#fff" id="Capa_1" enable-background="new 0 0 512 512" height="512" viewBox="0 0 512 512" width="512" xmlns="http://www.w3.org/2000/svg"><g><path d="m282.02 177.433-100.02-35.301v67.868c0 8.284 6.716 15 15 15h200c8.284 0 15-6.716 15-15v-67.868l-100.023 35.303c-4.821 1.702-9.861 2.565-14.977 2.565s-10.156-.863-14.98-2.567z"/><path d="m122.008 89.145 170 60c1.615.57 3.304.855 4.992.855s3.377-.285 4.992-.855l150.008-52.944v58.799c0 8.284 6.716 15 15 15s15-6.716 15-15v-80c0-6.359-4.011-12.028-10.008-14.145l-170-60c-3.23-1.141-6.754-1.141-9.984 0l-170 60c-5.997 2.117-10.008 7.786-10.008 14.145s4.011 12.028 10.008 14.145z"/><path d="m456.749 314.252-56.737 74.195c-11.353 14.845-28.974 23.553-47.662 23.553h-105.35c-8.284 0-15-6.716-15-15s6.716-15 15-15h91.309c19.625 0 36.06-16.061 35.685-35.683-.364-19.015-15.892-34.317-34.994-34.317h-105c-30.147-28.987-76.669-32.379-110.702-8.07l-11.298 8.07v170h100 20 140.864c30.624 0 59.146-15.572 75.706-41.332l58.539-91.061c3.193-4.967 4.89-10.746 4.89-16.651.001-29.446-37.364-42.095-55.25-18.704z"/><path d="m67 282h-52c-8.284 0-15 6.716-15 15v200c0 8.284 6.716 15 15 15h52c8.284 0 15-6.716 15-15v-200c0-8.284-6.716-15-15-15z"/></g></svg>