<?xml version="1.0" encoding="utf-8"?>
<!-- Generator: Adobe Illustrator 23.0.0, SVG Export Plug-In . SVG Version: 6.00 Build 0)  -->
<svg version="1.1" id="Layer_1" xmlns="http://www.w3.org/2000/svg" xmlns:xlink="http://www.w3.org/1999/xlink" x="0px" y="0px"
	 viewBox="0 0 143 107" style="enable-background:new 0 0 143 107;" xml:space="preserve">
<style type="text/css">
	.st0{fill:#1E88E5;}
	.st1{fill:#64B5F6;}
	.st2{fill:#2196F3;}
</style>
<g id="Group_37" transform="translate(-623 -96)">
	<g id="mail" transform="translate(623 119)">
		<path id="Path_58" class="st0" d="M139.5,67c-2.8,3.4-7,5.4-11.4,5.4H14.9c-4.4,0-8.6-2-11.4-5.4l54.6-45.5l5.7,3.9
			c4.7,3.2,10.8,3.2,15.5,0l5.7-3.9L139.5,67z"/>
		<path id="Path_59" class="st1" d="M140.4-16.5l-55.5,38l-5.7,3.9c-4.7,3.2-10.8,3.2-15.5,0l-5.7-3.9l-55.5-38
			c2.8-4,7.4-6.4,12.3-6.4h113.2C133-23,137.6-20.6,140.4-16.5z"/>
		<g id="Group_11" transform="translate(0 5.673)">
			<path id="Path_60" class="st2" d="M58.1,15.8L3.5,61.3c-2.2-2.7-3.5-6-3.5-9.5v-65.5c0-3,0.9-6,2.6-8.5L58.1,15.8z"/>
			<path id="Path_61" class="st2" d="M143-13.8v65.5c0,3.5-1.2,6.9-3.5,9.5L84.9,15.8l55.5-38C142.1-19.7,143-16.8,143-13.8z"/>
		</g>
	</g>
</g>
</svg>
