<?xml version="1.0" encoding="utf-8"?>
<!-- Generator: Adobe Illustrator 23.0.0, SVG Export Plug-In . SVG Version: 6.00 Build 0)  -->
<svg version="1.1" id="notification" xmlns="http://www.w3.org/2000/svg" xmlns:xlink="http://www.w3.org/1999/xlink" x="0px"
	 y="0px" viewBox="0 0 104.2 126.1" style="enable-background:new 0 0 104.2 126.1;" xml:space="preserve">
<style type="text/css">
	.st0{fill:#64B5F6;}
	.st1{fill:#147DDA;}
	.st2{fill:#2196F3;}
	.st3{fill:#1E88E5;}
</style>
<path id="Path_62" class="st0" d="M68.4,106.4c0,10.7-8.7,19.4-19.4,19.4s-19.4-8.7-19.4-19.4c0-10.7,8.7-19.4,19.4-19.4
	C59.7,87,68.3,95.7,68.4,106.4z"/>
<path id="Path_63" class="st1" d="M68.4,106.4c0,10.8-8.7,19.6-19.4,19.7V86.9C59.7,86.9,68.4,95.6,68.4,106.4z"/>
<path id="Path_64" class="st2" d="M98,93.8c0,9-7.3,16.2-16.2,16.2H16.2C7.3,110,0,102.8,0,93.8c0-4.3,1.7-8.4,4.8-11.5l6.9-6.9
	c1.4-1.4,2.3-3.4,2.5-5.4c0,0,0,0.1,5.2-42.8C20.9,12,33.7,0,49,0c15.1,0,28.1,11.9,29.6,27.2C83.7,69.8,83.7,70,83.7,70
	c0.2,2,1.1,3.9,2.5,5.4l6.9,6.9C96.3,85.4,98,89.5,98,93.8z"/>
<path id="Path_65" class="st3" d="M98,93.8c0,9-7.3,16.2-16.2,16.2H49V0c15.1,0,28.1,11.9,29.6,27.2C83.7,69.8,83.7,70,83.7,70
	c0.2,2,1.1,3.9,2.5,5.4l6.9,6.9C96.3,85.4,98,89.5,98,93.8L98,93.8z"/>
</svg>
