<?xml version="1.0" encoding="iso-8859-1"?>
<!-- Generator: Adobe Illustrator 19.0.0, SVG Export Plug-In . SVG Version: 6.00 Build 0)  -->
<svg fill="#fff" version="1.1" id="Capa_1" xmlns="http://www.w3.org/2000/svg" xmlns:xlink="http://www.w3.org/1999/xlink" x="0px" y="0px"
	 viewBox="0 0 480.518 480.518" style="enable-background:new 0 0 480.518 480.518;" xml:space="preserve">
<g>
	<g>
		<rect x="0.259" y="432" width="56" height="16"/>
	</g>
</g>
<g>
	<g>
		<rect x="32.259" y="400" width="56" height="16"/>
	</g>
</g>
<g>
	<g>
		<rect x="0.259" y="400" width="16" height="16"/>
	</g>
</g>
<g>
	<g>
		<rect x="32.259" y="464" width="56" height="16"/>
	</g>
</g>
<g>
	<g>
		<rect x="0.259" y="464" width="16" height="16"/>
	</g>
</g>
<g>
	<g>
		<rect x="72.259" y="432" width="16" height="16"/>
	</g>
</g>
<g>
	<g>
		<rect x="392.259" y="432" width="56" height="16"/>
	</g>
</g>
<g>
	<g>
		<rect x="424.259" y="400" width="56" height="16"/>
	</g>
</g>
<g>
	<g>
		<rect x="392.259" y="400" width="16" height="16"/>
	</g>
</g>
<g>
	<g>
		<rect x="424.259" y="464" width="56" height="16"/>
	</g>
</g>
<g>
	<g>
		<rect x="392.259" y="464" width="16" height="16"/>
	</g>
</g>
<g>
	<g>
		<rect x="464.259" y="432" width="16" height="16"/>
	</g>
</g>
<g>
	<g>
		<rect x="0.259" y="40" width="56" height="16"/>
	</g>
</g>
<g>
	<g>
		<rect x="32.259" y="8" width="56" height="16"/>
	</g>
</g>
<g>
	<g>
		<rect x="0.259" y="8" width="16" height="16"/>
	</g>
</g>
<g>
	<g>
		<rect x="32.259" y="72" width="56" height="16"/>
	</g>
</g>
<g>
	<g>
		<rect x="0.259" y="72" width="16" height="16"/>
	</g>
</g>
<g>
	<g>
		<rect x="72.259" y="40" width="16" height="16"/>
	</g>
</g>
<g>
	<g>
		<rect x="392.259" y="40" width="56" height="16"/>
	</g>
</g>
<g>
	<g>
		<rect x="424.259" y="8" width="56" height="16"/>
	</g>
</g>
<g>
	<g>
		<rect x="392.259" y="8" width="16" height="16"/>
	</g>
</g>
<g>
	<g>
		<rect x="424.259" y="72" width="56" height="16"/>
	</g>
</g>
<g>
	<g>
		<rect x="392.259" y="72" width="16" height="16"/>
	</g>
</g>
<g>
	<g>
		<rect x="464.259" y="40" width="16" height="16"/>
	</g>
</g>
<g>
	<g>
		<path d="M438.919,321.518c-4.047-4.058-9.11-6.953-14.66-8.382V166.864c17.081-4.414,27.35-21.839,22.936-38.92
			c-4.414-17.081-21.839-27.35-38.92-22.936c-5.528,1.429-10.572,4.313-14.607,8.352L270.875,40.8
			c0.873-2.854,1.339-5.816,1.384-8.8c0-17.673-14.327-32-32-32c-17.673,0-32,14.327-32,32c0.045,2.984,0.511,5.946,1.384,8.8
			L86.851,113.36c-12.46-12.496-32.691-12.525-45.187-0.065s-12.525,32.691-0.065,45.187c4.047,4.058,9.11,6.953,14.66,8.382
			v146.272c-17.081,4.414-27.35,21.839-22.936,38.92c4.414,17.081,21.839,27.35,38.92,22.936c5.528-1.429,10.572-4.313,14.607-8.352
			l122.792,72.56c-5.141,16.909,4.398,34.784,21.307,39.925c16.909,5.141,34.784-4.398,39.925-21.307
			c1.845-6.069,1.845-12.549,0-18.618l122.792-72.56c12.46,12.496,32.691,12.525,45.187,0.065
			C451.35,354.245,451.379,334.014,438.919,321.518z M416.259,120c8.837,0,16,7.163,16,16s-7.163,16-16,16s-16-7.163-16-16
			S407.422,120,416.259,120z M240.259,16c8.837,0,16,7.163,16,16s-7.163,16-16,16s-16-7.163-16-16S231.422,16,240.259,16z
			 M94.875,127.2l122.792-72.56c12.473,12.477,32.698,12.481,45.176,0.008c0.003-0.003,0.006-0.006,0.008-0.008l122.792,72.56
			c-1.845,5.722-1.845,11.878,0,17.6l-145.384,85.904L94.875,144.8C96.72,139.078,96.72,132.922,94.875,127.2z M48.259,136
			c0-8.837,7.163-16,16-16s16,7.163,16,16s-7.163,16-16,16S48.259,144.837,48.259,136z M64.259,360c-8.837,0-16-7.163-16-16
			s7.163-16,16-16s16,7.163,16,16S73.095,360,64.259,360z M94.875,352.8c5.09-16.527-4.181-34.051-20.708-39.142
			c-0.63-0.194-1.267-0.368-1.908-0.522V166.864c5.508-1.392,10.543-4.231,14.584-8.224l145.416,85.928v172.568
			c-5.509,1.393-10.547,4.233-14.592,8.224L94.875,352.8z M240.259,464c-8.837,0-16-7.163-16-16s7.163-16,16-16s16,7.163,16,16
			S249.095,464,240.259,464z M384.259,344c0.045,2.984,0.511,5.946,1.384,8.8l-122.792,72.56c-4.045-3.991-9.083-6.831-14.592-8.224
			V244.568l145.408-85.928c4.045,3.991,9.083,6.83,14.592,8.224v146.272C394.173,316.773,384.313,329.453,384.259,344z M416.259,360
			c-8.837,0-16-7.163-16-16s7.163-16,16-16s16,7.163,16,16S425.095,360,416.259,360z"/>
	</g>
</g>
<g>
	<g>
		<rect x="180.836" y="262.697" transform="matrix(0.8609 -0.5088 0.5088 0.8609 -111.5361 133.4764)" width="14.952" height="16"/>
	</g>
</g>
<g>
	<g>
		<rect x="155.103" y="277.911" transform="matrix(0.8609 -0.5088 0.5088 0.8609 -122.8573 122.5001)" width="14.952" height="16"/>
	</g>
</g>
<g>
	<g>
		<rect x="206.591" y="247.479" transform="matrix(0.8609 -0.5088 0.5088 0.8609 -100.21 144.465)" width="14.952" height="16"/>
	</g>
</g>
<g>
	<g>
		<rect x="129.379" y="293.102" transform="matrix(0.8609 -0.5088 0.5088 0.8609 -134.1667 111.5259)" width="14.952" height="16"/>
	</g>
</g>
<g>
	<g>
		<rect x="103.596" y="308.337" transform="matrix(0.8609 -0.5088 0.5088 0.8609 -145.505 100.5262)" width="14.952" height="16"/>
	</g>
</g>
<g>
	<g>
		<rect x="361.449" y="308.829" transform="matrix(0.5087 -0.8609 0.8609 0.5087 -90.816 473.4593)" width="16" height="14.952"/>
	</g>
</g>
<g>
	<g>
		<rect x="335.702" y="293.628" transform="matrix(0.5086 -0.861 0.861 0.5086 -90.3578 443.8871)" width="16" height="14.952"/>
	</g>
</g>
<g>
	<g>
		<rect x="309.941" y="278.439" transform="matrix(0.5087 -0.8609 0.8609 0.5087 -89.956 414.1858)" width="16" height="14.952"/>
	</g>
</g>
<g>
	<g>
		<rect x="258.436" y="248.032" transform="matrix(0.5087 -0.8609 0.8609 0.5087 -89.0811 354.9066)" width="16" height="14.952"/>
	</g>
</g>
<g>
	<g>
		<rect x="284.2" y="263.214" transform="matrix(0.5086 -0.861 0.861 0.5086 -89.4785 384.5981)" width="16" height="14.952"/>
	</g>
</g>
<g>
	<g>
		<rect x="232.259" y="200" width="16" height="16"/>
	</g>
</g>
<g>
	<g>
		<rect x="232.259" y="168" width="16" height="16"/>
	</g>
</g>
<g>
	<g>
		<rect x="232.259" y="136" width="16" height="16"/>
	</g>
</g>
<g>
	<g>
		<rect x="232.259" y="104" width="16" height="16"/>
	</g>
</g>
<g>
	<g>
		<rect x="232.259" y="72" width="16" height="16"/>
	</g>
</g>
<g>
</g>
<g>
</g>
<g>
</g>
<g>
</g>
<g>
</g>
<g>
</g>
<g>
</g>
<g>
</g>
<g>
</g>
<g>
</g>
<g>
</g>
<g>
</g>
<g>
</g>
<g>
</g>
<g>
</g>
</svg>
