<svg xmlns="http://www.w3.org/2000/svg" width="305.076" height="388.549" viewBox="0 0 305.076 388.549">
  <g id="Group_56" data-name="Group 56" transform="translate(-218 -251)">
    <g id="Group_54" data-name="Group 54">
      <g id="Group_42" data-name="Group 42" transform="translate(218 435.605)">
        <path id="Path_81" data-name="Path 81" d="M307.538,340.785l-40.257-44V243.258h-70.2V296.8l-39.81,43.984Z" transform="translate(-79.658 -243.258)" fill="#fff"/>
        <g id="Group_53" data-name="Group 53">
          <path id="Path_82" data-name="Path 82" d="M275.556,358.879l-36.09-10.6L207.535,384.9l-55.209-63.312L93.639,338.81A53.792,53.792,0,0,0,55,390.424v56.629a19.036,19.036,0,0,0,19.037,19.035H99.852l4.653-3.32h2.42l4.653,3.32H303.466l6.83-4.874h5.664V412.85a56.248,56.248,0,0,0-40.4-53.971Z" transform="translate(-54.997 -262.144)" fill="#fff"/>
        </g>
        <path id="Path_83" data-name="Path 83" d="M378.776,338.806,320.1,321.579l-27.28,31.28,36.454,10.7a53.791,53.791,0,0,1,38.639,51.612v46.038h4.626v4.874h25.844a19.036,19.036,0,0,0,19.036-19.036V390.42a53.791,53.791,0,0,0-38.639-51.613Z" transform="translate(-112.339 -262.142)" fill="#fff"/>
        <g id="Group_41" data-name="Group 41" transform="translate(44.855 166.945)">
          <g id="Group_40" data-name="Group 40">
            <g id="Group_39" data-name="Group 39">
              <g id="Group_38" data-name="Group 38">
                <path id="Path_84" data-name="Path 84" d="M125.829,500.244V469.108a5.863,5.863,0,1,0-11.726,0v31.136Z" transform="translate(-114.103 -463.245)" fill="#fff"/>
                <path id="Path_85" data-name="Path 85" d="M394.137,500.244V469.108a5.863,5.863,0,1,0-11.726,0v31.136Z" transform="translate(-178.796 -463.245)" fill="#fff"/>
              </g>
            </g>
          </g>
        </g>
      </g>
    </g>
    <g id="Group_55" data-name="Group 55">
      <g id="Group_50" data-name="Group 50" transform="translate(231.873 251)">
        <path id="Path_86" data-name="Path 86" d="M106.173,149.079l-6.011-6.628H87.314L81.3,149.079l-7.922,46.5a7.188,7.188,0,0,0,7.086,8.395h26.541a7.188,7.188,0,0,0,7.086-8.395Z" transform="translate(-73.277 -34.347)" fill="#e4f6ff"/>
        <path id="Path_87" data-name="Path 87" d="M104.24,115.747v-58.8a5.863,5.863,0,1,0-11.726,0v58.8Z" transform="translate(-77.915 -12.319)" fill="#407093"/>
        <g id="Group_46" data-name="Group 46" transform="translate(63.612 39.922)">
          <g id="Group_45" data-name="Group 45">
            <g id="Group_44" data-name="Group 44">
              <g id="Group_43" data-name="Group 43">
                <path id="Path_88" data-name="Path 88" d="M264.638,52.607H199.644A42.543,42.543,0,0,0,157.1,95.151v41.036l7.036,6.2H307.182V95.151A42.543,42.543,0,0,0,264.638,52.607Z" transform="translate(-157.1 -52.607)" fill="#efc984"/>
              </g>
            </g>
          </g>
        </g>
        <path id="Path_89" data-name="Path 89" d="M296.645,52.607h-6.8v89.778h42.85l6.495-6.2V95.151A42.543,42.543,0,0,0,296.645,52.607Z" transform="translate(-125.495 -12.685)" fill="#eabc6b"/>
        <g id="Group_47" data-name="Group 47" transform="translate(63.625 91.085)">
          <path id="Path_90" data-name="Path 90" d="M232.158,244.521q1.061,0,2.112-.036a62.975,62.975,0,0,0,29.2-50.152V120.025h-80.72V139.58a12.862,12.862,0,0,1-12.862,12.862H157.117v21.034a9.732,9.732,0,0,0,9.732,9.732,3.2,3.2,0,0,1,3.182,3.021,62.26,62.26,0,0,0,62.127,58.291Z" transform="translate(-157.117 -120.025)" fill="#ffddce"/>
        </g>
        <path id="Path_91" data-name="Path 91" d="M316.095,152.442a12.862,12.862,0,0,1-12.862-12.862V120.025H279.511v72.4a62.263,62.263,0,0,1-32.524,51.716,62.182,62.182,0,0,0,68.967-57.907,3.2,3.2,0,0,1,3.182-3.021,9.732,9.732,0,0,0,9.732-9.732V152.442Z" transform="translate(-115.161 -28.94)" fill="#ffcbbe"/>
        <path id="Path_92" data-name="Path 92" d="M247.42,66.116V51.623a13.014,13.014,0,0,1-12.914-13.012V12.565l-5.478-8.778L218.106.313a6.64,6.64,0,0,0-4.026,0L95.169,38.135a6.641,6.641,0,0,0,.9,12.875L216.093,71.452Z" transform="translate(-77.44 0)" fill="#fff"/>
        <path id="Path_93" data-name="Path 93" d="M261.941,67.366l-17.294-2.139a114.293,114.293,0,0,0-28.067,0l-65.817,8.144V102.7a5.755,5.755,0,0,0,5.755,5.755H261.941Z" transform="translate(-91.96 -15.519)" fill="#ececf2"/>
        <g id="Group_48" data-name="Group 48" transform="translate(151.589 3.787)">
          <path id="Path_94" data-name="Path 94" d="M381.018,39.338,273.029,4.99V39.4A12.86,12.86,0,0,0,285.79,52.261V68.279l94.329-16.066a6.641,6.641,0,0,0,.9-12.876Z" transform="translate(-273.029 -4.99)" fill="#ececf2"/>
        </g>
        <path id="Path_95" data-name="Path 95" d="M289.845,67.4v41.786h48.424a5.755,5.755,0,0,0,5.755-5.755V74.1Z" transform="translate(-125.495 -16.252)" fill="#fff"/>
        <path id="Path_96" data-name="Path 96" d="M108.723,144H83.854V127.678a6.28,6.28,0,0,1,6.281-6.281h12.308a6.28,6.28,0,0,1,6.281,6.281V144Z" transform="translate(-75.827 -29.271)" fill="#ffe07d"/>
      </g>
    </g>
  </g>
</svg>
