<svg id="Capa_1" enable-background="new 0 0 512 512" height="512" viewBox="0 0 512 512" width="512" xmlns="http://www.w3.org/2000/svg"><g><g><g><path d="m355.28 371.771-53.048-57.981v-70.532h-92.498v70.554l-52.459 57.959z" fill="#ffddce"/><path d="m345.633 370.728-47.557-13.962-42.076 48.247-72.75-83.428-77.333 22.698c-30.185 8.86-50.92 36.554-50.92 68.013v74.621c0 13.853 11.231 25.083 25.085 25.083h34.021l6.131-4.375h3.189l6.131 4.375h252.856l9-6.422h7.464v-63.731c.001-32.894-21.679-61.853-53.241-71.119z" fill="#407093"/><path d="m406.088 344.28-77.325-22.701-35.947 41.219 48.037 14.103c30.183 8.861 50.915 36.555 50.915 68.011v60.666h6.096v6.422h34.055c13.854 0 25.084-11.231 25.084-25.084v-74.624c0-31.457-20.732-59.151-50.915-68.012z" fill="#365e7d"/><g><g><g><g fill="#365e7d"><path d="m129.555 512v-41.029c0-4.267-3.459-7.726-7.726-7.726s-7.726 3.459-7.726 7.726v41.029z"/><path d="m397.863 512v-41.029c0-4.267-3.459-7.726-7.726-7.726s-7.726 3.459-7.726 7.726v41.029z"/></g></g></g></g></g><g><g><path d="m116.625 151.185-7.921-8.734h-16.93l-7.921 8.734-10.439 61.27c-.985 5.783 3.47 11.062 9.337 11.062h34.974c5.867 0 10.322-5.279 9.337-11.062z" fill="#e4f6ff"/><path d="m107.966 136.291v-77.476c0-4.267-3.459-7.726-7.726-7.726s-7.726 3.459-7.726 7.726v77.476z" fill="#407093"/><g><g><g><g><path d="m298.806 52.607h-1.704-82.237-1.704c-30.962 0-56.061 25.099-56.061 56.061v.883 53.191l9.271 8.168h188.495v-61.359-.883c.001-30.961-25.099-56.061-56.06-56.061z" fill="#efc984"/></g></g></g></g><path d="m298.806 52.607h-1.704-7.258v118.303h56.464l8.558-8.168v-53.191-.883c.001-30.961-25.099-56.061-56.06-56.061z" fill="#eabc6b"/><g><path d="m256 284.076c.932 0 1.859-.016 2.783-.047 22.119-14.048 37.143-38.267 38.482-66.087v-97.917h-106.367v25.768c0 9.361-7.589 16.949-16.949 16.949h-16.832v27.717c0 7.082 5.741 12.824 12.824 12.824 2.234 0 4.053 1.751 4.193 3.981 2.704 42.872 38.312 76.812 81.866 76.812z" fill="#ffddce"/></g><path d="m338.052 162.742c-9.361 0-16.949-7.588-16.949-16.949v-25.768h-31.258v95.397c-1.418 29.472-18.378 54.854-42.858 68.147 2.962.324 5.965.507 9.013.507 43.554 0 79.162-33.94 81.866-76.812.141-2.23 1.959-3.981 4.193-3.981 7.082 0 12.824-5.741 12.824-12.824v-27.717z" fill="#ffcbbe"/><path d="m297.265 87.123v-19.098c-9.41-.074-17.017-7.718-17.017-17.146v-34.322l-7.219-11.567-14.393-4.578c-1.726-.549-3.579-.549-5.305 0l-156.691 49.839c-8.741 2.78-7.859 15.426 1.183 16.966l158.161 26.937z" fill="#407093"/><path d="m297.265 68.32-22.789-2.819c-12.282-1.519-24.704-1.519-36.985.001l-86.728 10.732v38.648c0 4.188 3.395 7.583 7.583 7.583h138.919z" fill="#4a80aa"/><g><path d="m415.328 50.251-142.299-45.261v45.347c0 9.316 7.517 16.87 16.815 16.943v21.108l124.3-21.17c9.043-1.542 9.925-14.187 1.184-16.967z" fill="#365e7d"/></g><path d="m289.845 67.402v55.063h63.809c4.188 0 7.583-3.395 7.583-7.583v-38.649z" fill="#407093"/><path d="m116.625 151.185h-32.771v-21.512c0-4.571 3.705-8.276 8.276-8.276h16.218c4.571 0 8.276 3.705 8.276 8.276v21.512z" fill="#ffe07d"/></g></g><g fill="#4a80aa"><path d="m302.232 287.969c0 30.008-8.711 59.371-25.075 84.524l-21.157 32.52 118.04-70.142z"/><path d="m209.768 287.969c0 30.008 8.711 59.371 25.075 84.524l21.157 32.52-118.04-70.142z"/></g><g><path d="m295.402 333.411c-12.14 2.673-25.443 4.155-39.402 4.155-13.958 0-27.262-1.482-39.402-4.155 4.215 13.742 10.324 26.908 18.244 39.082l21.158 32.52 21.157-32.52c7.921-12.174 14.03-25.34 18.245-39.082z" fill="#f4fbff"/></g></g></g></svg>