<?xml version="1.0" encoding="UTF-8"?>
<svg fill="#fff" xmlns="http://www.w3.org/2000/svg" viewBox="0 0 64 64" width="512" height="512"><g id="find-avatar-user-business"><path d="M39,15.5a.5.5,0,0,0-.5-.5H38v1h.5A.5.5,0,0,0,39,15.5Z"/><path d="M8,41v3H24V41a3,3,0,0,0-3-3H11A3,3,0,0,0,8,41Z"/><circle cx="16" cy="33" r="3"/><path d="M32,23a4,4,0,0,0,4-4V14H28v5A4,4,0,0,0,32,23Z"/><path d="M25,15.5a.5.5,0,0,0,.5.5H26V15h-.5A.5.5,0,0,0,25,15.5Z"/><path d="M37,10a1,1,0,0,0-1-1H29a1,1,0,0,1-.316-.051L27,8.387V12H37Z"/><path d="M32,29a2,2,0,0,0,1.731-1H30.269A2,2,0,0,0,32,29Z"/><circle cx="48" cy="33" r="3"/><path d="M21,29a3,3,0,0,1,3-3h5V24.188A6,6,0,0,1,26,19V18h-.5a2.5,2.5,0,0,1-.49-4.95c0-.018-.01-.032-.01-.05V7a1,1,0,0,1,1.316-.949L29.162,7H36a3,3,0,0,1,3,3v3c0,.018-.009.032-.01.05A2.5,2.5,0,0,1,38.5,18H38v1a6,6,0,0,1-3,5.188V26h5a3,3,0,0,1,3,3v1.589a16,16,0,1,0-22,0Z"/><path d="M40,41v3H56V41a3,3,0,0,0-3-3H43A3,3,0,0,0,40,41Z"/><path d="M32,25a6,6,0,0,1-1-.09V26h2V24.91A6,6,0,0,1,32,25Z"/><path d="M49.26,24.07a17.867,17.867,0,0,1-1.72,3.98A3.408,3.408,0,0,1,48,28a5,5,0,0,1,5,5,4.924,4.924,0,0,1-1.03,3H53a5,5,0,0,1,5,5v4a1,1,0,0,1-1,1H39a1,1,0,0,1-1-1V41a5,5,0,0,1,5-5h1.03a4.917,4.917,0,0,1-1.01-2.8A17.9,17.9,0,0,1,37,36.28V43a1,1,0,0,1-1,1v1.2a14.078,14.078,0,0,0,9,6.46V54h1v6h4V54h1V51.67a13.99,13.99,0,0,0-1.74-27.6Z"/><path d="M24,28a1,1,0,0,0-1,1v3.218a15.949,15.949,0,0,0,18,0V29a1,1,0,0,0-1-1H35.858a3.981,3.981,0,0,1-7.716,0Z"/><path d="M29,36.729V42h6V36.729a16.741,16.741,0,0,1-6,0Z"/><path d="M27,43V36.28a17.9,17.9,0,0,1-6.02-3.08A4.917,4.917,0,0,1,19.97,36H21a5,5,0,0,1,5,5v4a1,1,0,0,1-1,1H7a1,1,0,0,1-1-1V41a5,5,0,0,1,5-5h1.03A4.924,4.924,0,0,1,11,33a5,5,0,0,1,5-5,3.408,3.408,0,0,1,.46.05,17.867,17.867,0,0,1-1.72-3.98A13.99,13.99,0,0,0,13,51.67V54h1v6h4V54h1V51.66a14.078,14.078,0,0,0,9-6.46V44A1,1,0,0,1,27,43Z"/><rect x="30" y="44" width="4" height="16"/></g></svg>
